<svg width="86" height="25" viewBox="0 0 86 25" fill="none" xmlns="http://www.w3.org/2000/svg">
<path d="M5.84632 24.1787H0.843655V24.1133C2.38042 22.1842 2.74009 21.1706 2.74009 18.7183V4.06995C2.6093 2.30431 2.08615 1.51957 0.582078 0.309779V0.244383H5.25777L14.1841 20.0262L22.9142 0.244383H27.3611V0.309779C25.6281 1.65036 25.203 2.53318 25.203 4.98547V19.2087C25.203 21.4975 25.4646 22.4131 26.5109 24.1133V24.1787H21.2467V24.1133C22.293 22.4131 22.5546 21.4648 22.5546 19.2087V2.82746L13.3994 23.4594H12.8108L3.39403 2.66397L3.49213 18.7183C3.49213 21.1706 3.94989 22.1842 5.84632 24.1133V24.1787ZM34.1378 23.2305C35.6092 23.2305 36.9825 22.5765 37.7345 21.8572V16.4295C34.661 16.9853 31.4566 18.1951 31.4566 20.8436C31.4566 22.2496 32.3395 23.2305 34.1378 23.2305ZM40.1541 24.5711C38.6173 24.5711 37.8653 23.6229 37.7345 22.4131C36.6555 23.6229 34.8898 24.6692 32.7972 24.6692C30.6719 24.6692 29.1351 23.5902 29.1351 21.5956C29.1351 17.9989 34.1378 16.3641 37.7345 15.939V12.6693C37.7345 10.9037 36.9825 9.56308 34.3667 9.56308C32.8299 9.56308 31.1297 10.0535 29.8872 11.0018L29.7237 10.8056C31.0316 9.23611 33.1896 8.1244 35.7727 8.1244C39.2713 8.1244 40.1214 10.0208 40.1214 12.0808V21.6937C40.1214 22.5112 40.4811 23.0997 41.3966 23.0997C42.0178 23.0997 42.5083 22.8054 42.966 22.4131L43.0641 22.4785C42.7045 23.3286 41.887 24.5711 40.1541 24.5711ZM44.4126 24.1787V24.1133C45.0339 22.6746 45.132 21.4321 45.132 19.1433V13.029C45.132 11.3614 44.4453 10.4132 43.6933 9.75926V9.69387L47.3881 7.96092V11.9173L47.5516 11.95C48.9902 10.4132 50.527 8.1244 52.7831 8.1244L52.7504 11.3614H52.6523C52.1292 11.0018 50.7886 10.6421 50.0365 10.6421C49.4807 10.6421 48.4017 11.5249 47.5189 12.6693V19.1107C47.5189 21.3668 47.5843 22.6746 48.2382 24.1133V24.1787H44.4126ZM62.3728 24.6692C57.8933 24.6692 54.1658 20.9417 54.1658 16.4295C54.1985 11.9173 57.926 8.1244 62.3728 8.1244C66.8523 8.1244 70.5798 11.9173 70.5798 16.4295C70.5798 20.9417 66.8523 24.6692 62.3728 24.6692ZM62.3728 24.0479C66.0676 24.0479 67.8333 20.5166 67.8333 16.4295C67.8333 12.3096 66.0349 8.74565 62.3728 8.74565C58.7107 8.74565 56.9124 12.3096 56.9124 16.4295C56.9124 20.5166 58.678 24.0479 62.3728 24.0479ZM85.7357 20.4512L85.9319 20.5493C85.0818 23.0016 82.9238 24.6692 79.8175 24.6692C75.5342 24.6692 72.6242 21.5629 72.6242 16.7565C72.6242 11.5249 76.5478 8.1244 80.8638 8.1244C83.0219 8.1244 84.4605 8.74565 85.2126 9.10532L85.5395 12.4404L85.278 12.5058C84.1009 10.4459 82.4333 8.71295 80.3407 8.71295C77.1691 8.71295 75.0764 11.3287 75.0764 15.6448C75.0764 19.8627 77.1691 22.5765 80.8311 22.5765C82.6295 22.5765 84.6567 21.9553 85.7357 20.4512Z" fill="#161010"/>
</svg>
