<svg width="101" height="26" viewBox="0 0 101 26" fill="none" xmlns="http://www.w3.org/2000/svg">
<path d="M13.007 25.1553C6.53296 25.1553 0.909049 19.7275 0.909049 12.7303C0.909049 5.73313 6.53296 0.24001 13.007 0.24001C19.5137 0.24001 25.1703 5.73313 25.1703 12.7303C25.1703 19.7275 19.5137 25.1553 13.007 25.1553ZM13.007 24.5013C18.8925 24.5013 22.0968 19.4986 22.0968 12.7303C22.0968 5.99471 18.8925 0.893953 13.007 0.893953C7.15421 0.893953 3.98258 5.99471 3.98258 12.7303C3.98258 19.4659 7.15421 24.5013 13.007 24.5013ZM31.7749 23.7166C33.2463 23.7166 34.6196 23.0626 35.3716 22.3433V16.9156C32.2981 17.4714 29.0938 18.6812 29.0938 21.3297C29.0938 22.7357 29.9766 23.7166 31.7749 23.7166ZM37.7912 25.0572C36.2544 25.0572 35.5024 24.1089 35.3716 22.8991C34.2926 24.1089 32.527 25.1553 30.4343 25.1553C28.309 25.1553 26.7723 24.0762 26.7723 22.0817C26.7723 18.485 31.7749 16.8502 35.3716 16.4251V13.1554C35.3716 11.3897 34.6196 10.0492 32.0038 10.0492C30.467 10.0492 28.7668 10.5396 27.5243 11.4878L27.3608 11.2917C28.6687 9.72219 30.8267 8.61049 33.4098 8.61049C36.9084 8.61049 37.7585 10.5069 37.7585 12.5668V22.1798C37.7585 22.9972 38.1182 23.5858 39.0337 23.5858C39.6549 23.5858 40.1454 23.2915 40.6032 22.8991L40.7012 22.9645C40.3416 23.8147 39.5241 25.0572 37.7912 25.0572ZM44.6829 24.5994V24.6648H41.1189V24.5994C42.4922 23.5858 43.1788 22.9645 44.3232 21.297L47.1352 17.2098L44.2905 12.6649C43.2442 10.9647 42.2633 9.78758 41.4132 9.16634V9.10094H46.187V9.16634C45.5003 9.88567 45.8927 10.7358 46.8082 12.2399L48.9662 15.6731L50.8954 12.763C52.0725 10.9974 51.8763 9.85298 51.3531 9.16634V9.10094H54.9498V9.16634C53.5765 10.1799 52.9226 10.8012 51.7782 12.4688L49.2932 16.2289L52.3667 21.1008C53.413 22.8338 54.4266 23.9455 55.2768 24.5994V24.6648H50.5357V24.5994C51.2223 23.7493 50.7646 23.0299 49.8163 21.5259L47.4622 17.733L45.206 21.0354C43.9963 22.7357 44.1597 23.8147 44.6829 24.5994ZM61.6622 23.7166C63.1335 23.7166 64.5068 23.0626 65.2589 22.3433V16.9156C62.1853 17.4714 58.981 18.6812 58.981 21.3297C58.981 22.7357 59.8638 23.7166 61.6622 23.7166ZM67.6785 25.0572C66.1417 25.0572 65.3897 24.1089 65.2589 22.8991C64.1799 24.1089 62.4142 25.1553 60.3216 25.1553C58.1963 25.1553 56.6595 24.0762 56.6595 22.0817C56.6595 18.485 61.6622 16.8502 65.2589 16.4251V13.1554C65.2589 11.3897 64.5068 10.0492 61.8911 10.0492C60.3543 10.0492 58.654 10.5396 57.4115 11.4878L57.2481 11.2917C58.5559 9.72219 60.714 8.61049 63.297 8.61049C66.7956 8.61049 67.6458 10.5069 67.6458 12.5668V22.1798C67.6458 22.9972 68.0054 23.5858 68.9209 23.5858C69.5422 23.5858 70.0326 23.2915 70.4904 22.8991L70.5885 22.9645C70.2288 23.8147 69.4114 25.0572 67.6785 25.0572ZM84.3946 20.9373L84.5908 21.0354C83.7407 23.4877 81.5827 25.1553 78.4764 25.1553C74.1931 25.1553 71.2831 22.049 71.2831 17.2425C71.2831 12.011 75.2067 8.61049 79.5227 8.61049C81.6808 8.61049 83.1194 9.23173 83.8715 9.5914L84.1984 12.9265L83.9369 12.9919C82.7598 10.932 81.0922 9.19903 78.9996 9.19903C75.828 9.19903 73.7353 11.8148 73.7353 16.1308C73.7353 20.3488 75.828 23.0626 79.4901 23.0626C81.2884 23.0626 83.3156 22.4414 84.3946 20.9373ZM91.741 23.7166C93.2124 23.7166 94.5857 23.0626 95.3377 22.3433V16.9156C92.2642 17.4714 89.0598 18.6812 89.0598 21.3297C89.0598 22.7357 89.9427 23.7166 91.741 23.7166ZM97.7573 25.0572C96.2205 25.0572 95.4685 24.1089 95.3377 22.8991C94.2587 24.1089 92.493 25.1553 90.4004 25.1553C88.2751 25.1553 86.7383 24.0762 86.7383 22.0817C86.7383 18.485 91.741 16.8502 95.3377 16.4251V13.1554C95.3377 11.3897 94.5857 10.0492 91.9699 10.0492C90.4331 10.0492 88.7329 10.5396 87.4904 11.4878L87.3269 11.2917C88.6348 9.72219 90.7928 8.61049 93.3759 8.61049C96.8745 8.61049 97.7246 10.5069 97.7246 12.5668V22.1798C97.7246 22.9972 98.0843 23.5858 98.9998 23.5858C99.621 23.5858 100.111 23.2915 100.569 22.8991L100.667 22.9645C100.308 23.8147 99.4902 25.0572 97.7573 25.0572Z" fill="#161010"/>
</svg>
