<svg width="101" height="33" viewBox="0 0 101 33" fill="none" xmlns="http://www.w3.org/2000/svg">
<path d="M83.7002 15.5931V10.4841H85.4032V15.5931H90.5122V17.296H85.4032V22.405H83.7002V17.296H78.5913V15.5931H83.7002Z" fill="#161010"/>
<rect x="68.7135" y="0.60684" width="31.6754" height="31.6754" rx="15.8377" stroke="#161010" stroke-width="1.02179"/>
<path d="M48.464 14.93H46.9272C46.9272 12.5921 48.2024 10.7448 50.998 10.7448C52.9271 10.7448 54.5947 11.9709 54.5947 14.1289C54.5947 16.3196 52.829 17.3496 51.1778 18.3142C49.9026 19.0498 48.6928 19.7528 48.3822 20.9299V20.9626H54.4312V22.2705H46.6002C46.6002 20.2269 47.8918 18.6248 49.968 17.415C52.077 16.1888 53.0579 15.7965 53.0579 14.1453C53.0579 13.197 52.6982 12.0526 50.9653 12.0526C48.9871 12.0526 48.464 13.3769 48.464 14.93Z" fill="#161010"/>
<path d="M11.1533 15.593V17.296H23.0742V15.593H11.1533Z" fill="#161010"/>
<rect x="1.27554" y="0.60684" width="31.6754" height="31.6754" rx="15.8377" stroke="#161010" stroke-width="1.02179"/>
</svg>
