<svg width="34" height="33" viewBox="0 0 34 33" fill="none" xmlns="http://www.w3.org/2000/svg">
<path d="M20.9031 12.1532H24.4793V13.5837H23.0488V22.882C23.0488 23.277 22.7286 23.5972 22.3336 23.5972H12.3201C11.925 23.5972 11.6048 23.277 11.6048 22.882V13.5837H10.1743V12.1532H13.7506V10.0075C13.7506 9.61247 14.0708 9.29224 14.4658 9.29224H20.1878C20.5829 9.29224 20.9031 9.61247 20.9031 10.0075V12.1532ZM21.6183 13.5837H13.0353V22.1667H21.6183V13.5837ZM15.1811 15.7295H16.6116V20.021H15.1811V15.7295ZM18.0421 15.7295H19.4726V20.021H18.0421V15.7295ZM15.1811 10.7227V12.1532H19.4726V10.7227H15.1811Z" fill="#8D8583"/>
<rect x="1.48892" y="0.60684" width="31.6754" height="31.6754" rx="15.8377" stroke="#8D8583" stroke-width="1.02179"/>
</svg>
