<svg width="97" height="27" viewBox="0 0 97 27" fill="none" xmlns="http://www.w3.org/2000/svg">
<path d="M11.4566 26.412H10.6719L3.34772 6.69558C2.4649 4.27599 1.87635 3.26237 0.731951 2.28146V2.21606H6.45396V2.28146C5.86541 3.06619 5.47304 4.83184 6.19238 6.79367L12.0452 22.8153L17.4402 8.16695C18.65 4.92993 17.7672 3.19698 17.0805 2.28146V2.21606H21.4293V2.28146C19.9252 3.65474 19.402 4.83184 18.4865 7.38222L11.4566 26.412ZM27.1441 10.6846C24.5283 10.6846 22.8608 12.7446 22.4357 15.8835L30.61 15.72V15.4584C30.61 12.1887 29.4002 10.6846 27.1441 10.6846ZM33.3239 22.194C32.5064 24.7444 30.2503 26.6408 27.046 26.6408C22.73 26.6408 19.8526 23.3057 19.8526 18.63C19.8526 13.4312 23.482 10.0961 27.2749 10.0961C31.0678 10.0961 33.4874 13.3658 33.2585 16.4066H22.3703C22.3376 16.7663 22.3376 17.126 22.3376 17.5183C22.3376 21.8998 24.4302 24.5482 28.125 24.5482C30.1196 24.5482 32.0487 23.7635 33.1604 22.0959L33.3239 22.194ZM36.0569 26.1504V26.085C36.6781 24.6463 36.7762 23.4038 36.7762 21.115V15.0007C36.7762 13.3331 36.0896 12.3849 35.3376 11.7309V11.6655L39.0323 9.9326V13.889L39.1958 13.9216C40.6345 12.3849 42.1713 10.0961 44.4274 10.0961L44.3947 13.3331H44.2966C43.7734 12.9734 42.4328 12.6138 41.6808 12.6138C41.125 12.6138 40.046 13.4966 39.1631 14.641V21.0823C39.1631 23.3384 39.2285 24.6463 39.8825 26.085V26.1504H36.0569ZM53.7228 25.0387C55.5866 25.0387 57.1233 24.0578 58.1042 22.6845V14.5429C57.6465 11.5675 55.7827 10.6846 54.0825 10.6846C50.8455 10.6846 48.5894 13.8236 48.5894 18.1723C48.5894 22.3902 50.5512 25.0387 53.7228 25.0387ZM58.2677 23.3384H58.1696C57.1887 25.0387 55.325 26.6408 52.4149 26.6408C48.524 26.6408 45.9736 23.5673 45.9736 18.9897C45.9736 14.314 49.1779 10.0961 54.5402 10.0961C55.9135 10.0961 57.156 10.3577 58.1042 10.8154V5.35499C58.1042 3.78553 57.4176 2.9027 56.6656 2.31416V2.24876L60.4911 0.679297V21.0496C60.4911 24.2213 60.8835 24.7771 61.9625 25.4638V25.5291L58.2677 26.5428V23.3384ZM71.9622 26.6408C67.4827 26.6408 63.7552 22.9134 63.7552 18.4012C63.7879 13.889 67.5154 10.0961 71.9622 10.0961C76.4417 10.0961 80.1692 13.889 80.1692 18.4012C80.1692 22.9134 76.4417 26.6408 71.9622 26.6408ZM71.9622 26.0196C75.657 26.0196 77.4226 22.4883 77.4226 18.4012C77.4226 14.2813 75.6243 10.7173 71.9622 10.7173C68.3001 10.7173 66.5018 14.2813 66.5018 18.4012C66.5018 22.4883 68.2674 26.0196 71.9622 26.0196ZM86.6931 26.085V26.1504H82.8675V26.085C83.4887 24.6463 83.5868 23.4038 83.5868 21.115V15.0007C83.5868 13.3331 82.9002 12.3849 82.1481 11.7309V11.6655L85.8429 9.9326V12.9734L85.9737 13.0061C87.5105 11.1751 89.4069 10.0961 91.5649 10.0961C94.5731 10.0961 96.1752 11.9271 96.1752 14.8699V21.0823C96.1752 23.4365 96.2079 24.6463 96.8946 26.085V26.1504H93.069V26.085C93.6576 24.6463 93.7883 23.273 93.7883 21.115V15.393C93.7883 13.3658 92.9055 11.6982 90.4205 11.6982C88.8838 11.6982 87.2489 12.3195 85.9737 13.6274V21.0823C85.9737 23.3384 86.0391 24.6463 86.6931 26.085Z" fill="#161010"/>
</svg>
